<svg width="350" height="786" viewBox="0 0 350 786" fill="none" xmlns="http://www.w3.org/2000/svg">
<mask id="mask0" mask-type="alpha" maskUnits="userSpaceOnUse" x="0" y="0" width="350" height="786">
<rect width="350" height="786" fill="#C4C4C4"/>
</mask>
<g mask="url(#mask0)">
<path d="M546.06 458.744C603.979 450.863 689.575 478.903 727.022 335.747C733.602 222.269 600.57 298.76 493.043 313.694C407.022 325.641 418.938 247.045 435.649 206.253C457.974 137.35 443.32 10.5927 206.104 54.7951C-31.1127 98.9976 -7.95523 186.627 33.2756 224.916C57.4232 235.177 98.5567 287.324 69.9093 413.823C34.0999 571.946 19.8898 563.088 160.95 688.783C302.01 814.477 395.307 665.799 388.319 591.496C382.728 532.053 491.15 478.227 546.06 458.744Z" fill="url(#paint0_linear)"/>
</g>
<defs>
<linearGradient id="paint0_linear" x1="502.824" y1="575.534" x2="83.9699" y2="77.8356" gradientUnits="userSpaceOnUse">
<stop stop-color="#0FC86F"/>
<stop offset="1" stop-color="#4C97CB"/>
</linearGradient>
</defs>
</svg>
